<svg width="20" height="20" viewBox="0 0 20 20" fill="none" xmlns="http://www.w3.org/2000/svg">
<path d="M9.99922 7C9.0051 7 8.19922 7.80588 8.19922 8.8C8.19922 9.79411 9.0051 10.6 9.99922 10.6C10.9933 10.6 11.7992 9.79411 11.7992 8.8C11.7992 7.80588 10.9933 7 9.99922 7Z" fill="#686B6E"/>
<path fill-rule="evenodd" clip-rule="evenodd" d="M11.8 3.39985L10.6 3.39987V1H9.39999V3.39988H8.19988C4.2235 3.39991 1.00001 6.62342 1 10.5998C0.999989 14.5762 4.22352 17.7997 8.19994 17.7997H11.8C11.9567 17.7997 12.1123 17.7948 12.2666 17.7849L17.0545 18.9819C17.259 19.033 17.4753 18.9731 17.6243 18.8241C17.7733 18.675 17.8332 18.4588 17.7821 18.2543L17.0897 15.4845C18.2749 14.2014 19 12.4848 19 10.5998C19 6.62336 15.7764 3.39982 11.8 3.39985ZM6.99999 8.79999C6.99999 7.14314 8.34314 5.79999 9.99999 5.79999C11.6568 5.79999 13 7.14314 13 8.79999C13 10.4568 11.6568 11.8 9.99999 11.8C8.34314 11.8 6.99999 10.4568 6.99999 8.79999ZM9.99997 15.4C8.72353 15.4 7.54906 14.9563 6.62471 14.2153L7.37526 13.2791C8.0944 13.8556 9.00614 14.2 9.99997 14.2C10.9938 14.2 11.9055 13.8556 12.6247 13.2791L13.3752 14.2153C12.4509 14.9563 11.2764 15.4 9.99997 15.4Z" fill="#686B6E"/>
</svg>
