<svg width="20" height="20" viewBox="0 0 20 20" fill="none" xmlns="http://www.w3.org/2000/svg">
<path d="M10 8.33333C10.9205 8.33333 11.6667 9.07952 11.6667 10C11.6667 10.9205 10.9205 11.6667 10 11.6667C9.07957 11.6667 8.33338 10.9205 8.33338 10C8.33338 9.07952 9.07957 8.33333 10 8.33333Z" stroke="#686B6E" stroke-width="1.5" stroke-linecap="round" stroke-linejoin="round"/>
<path d="M5.75118 5.62241C4.97081 5.17187 3.97295 5.43924 3.52241 6.21961L3.48762 6.27986C3.0369 7.06053 3.30438 8.05876 4.08504 8.50947L4.28737 8.62629C4.76456 8.90179 5.00004 9.449 5.00004 10C5.00004 10.551 4.76456 11.0982 4.28737 11.3737L4.08504 11.4905C3.30438 11.9412 3.0369 12.9395 3.48762 13.7201L3.52241 13.7804C3.97295 14.5608 4.97081 14.8281 5.75118 14.3776L5.95459 14.2601C6.43174 13.9847 7.01946 14.0525 7.49613 14.3288C7.97263 14.605 8.33338 15.0837 8.33338 15.6345V15.8689C8.33338 16.7697 9.06363 17.5 9.96444 17.5H10.0356C10.9365 17.5 11.6667 16.7697 11.6667 15.8689V15.6345C11.6667 15.0837 12.0275 14.605 12.504 14.3288C12.9806 14.0525 13.5684 13.9847 14.0455 14.2601L14.2489 14.3776C15.0293 14.8281 16.0272 14.5608 16.4777 13.7804L16.5125 13.7202C16.9632 12.9395 16.6957 11.9412 15.915 11.4905L15.7127 11.3737C15.2355 11.0982 15 10.551 15 10C15 9.449 15.2355 8.90179 15.7127 8.62629L15.915 8.50947C16.6957 8.05875 16.9632 7.06051 16.5125 6.27984L16.4777 6.21961C16.0272 5.43924 15.0293 5.17186 14.2489 5.62241L14.0455 5.73985C13.5684 6.01533 12.9806 5.94749 12.504 5.67118C12.0275 5.39496 11.6667 4.91627 11.6667 4.36549V4.13106C11.6667 3.23025 10.9365 2.5 10.0356 2.5L9.96444 2.5C9.06363 2.5 8.33338 3.23025 8.33338 4.13106V4.36549C8.33338 4.91627 7.97263 5.39496 7.49613 5.67118C7.01946 5.94749 6.43174 6.01534 5.95459 5.73986L5.75118 5.62241Z" stroke="#686B6E" stroke-width="1.5" stroke-linecap="round" stroke-linejoin="round"/>
</svg>
