<svg width="20" height="20" viewBox="0 0 20 20" fill="none" xmlns="http://www.w3.org/2000/svg">
<path fill-rule="evenodd" clip-rule="evenodd" d="M4.16667 2.5H15.8333C16.75 2.5 17.5 3.25 17.5 4.16667V15.8333C17.5 16.75 16.75 17.5 15.8333 17.5H4.16667C3.25 17.5 2.5 16.75 2.5 15.8333V4.16667C2.5 3.25 3.25 2.5 4.16667 2.5ZM5.83333 13.3333C5.83333 13.7917 6.20833 14.1667 6.66667 14.1667C7.125 14.1667 7.5 13.7917 7.5 13.3333V9.16667C7.5 8.70833 7.125 8.33333 6.66667 8.33333C6.20833 8.33333 5.83333 8.70833 5.83333 9.16667V13.3333ZM10 14.1667C9.54167 14.1667 9.16667 13.7917 9.16667 13.3333V6.66667C9.16667 6.20833 9.54167 5.83333 10 5.83333C10.4583 5.83333 10.8333 6.20833 10.8333 6.66667V13.3333C10.8333 13.7917 10.4583 14.1667 10 14.1667ZM12.5 13.3333C12.5 13.7917 12.875 14.1667 13.3333 14.1667C13.7917 14.1667 14.1667 13.7917 14.1667 13.3333V11.6667C14.1667 11.2083 13.7917 10.8333 13.3333 10.8333C12.875 10.8333 12.5 11.2083 12.5 11.6667V13.3333Z" fill="#686B6E"/>
</svg>
