<svg width="40" height="40" viewBox="0 0 40 40" fill="none" xmlns="http://www.w3.org/2000/svg">
<rect width="40" height="40" rx="8" fill="#D7FF1F" fill-opacity="0.15"/>
<path d="M25.6251 15.1658L26.3999 14.294C26.7095 14.5692 27.1836 14.5413 27.4588 14.2318L27.8124 13.8339C27.8187 13.8269 27.8253 13.8203 27.8322 13.8141C27.8505 13.7976 27.8679 13.7805 27.8842 13.7628C27.9082 13.761 27.9324 13.758 27.9567 13.7539C27.9658 13.7523 27.9751 13.7512 27.9845 13.7507C27.994 13.7501 28.0033 13.7501 28.0126 13.7506C28.0372 13.7519 28.0615 13.7521 28.0856 13.751C28.1039 13.7668 28.1231 13.7818 28.1432 13.796C28.1508 13.8013 28.1581 13.8071 28.1652 13.8134C28.1721 13.8196 28.1787 13.8261 28.1848 13.833C28.2012 13.8513 28.2184 13.8686 28.2361 13.8849C28.2379 13.909 28.2409 13.9332 28.2451 13.9574C28.2467 13.9666 28.2477 13.9759 28.2483 13.9853C28.2489 13.9947 28.2489 14.004 28.2484 14.0133C28.2471 14.0379 28.247 14.0623 28.248 14.0864C28.2323 14.1046 28.2173 14.1239 28.2031 14.144C28.1977 14.1516 28.1919 14.1589 28.1857 14.1659L27.8812 14.5085C27.606 14.8181 27.6339 15.2922 27.9435 15.5673L27.4163 16.1605C27.1067 15.8853 26.6327 15.9132 26.3575 16.2228L25.748 16.9085C25.4728 17.2181 25.5007 17.6922 25.8103 17.9673L25.2831 18.5605C24.9735 18.2853 24.4995 18.3132 24.2243 18.6228L23.6148 19.3085C23.3396 19.6181 23.3675 20.0922 23.6771 20.3673L23.1499 20.9605C22.8403 20.6853 22.3663 20.7132 22.0911 21.0228L21.4816 21.7085C21.2064 22.0181 21.2343 22.4922 21.5439 22.7673L21.0167 23.3605C20.7071 23.0853 20.2331 23.1132 19.9579 23.4228L19.3484 24.1085C19.0732 24.4181 19.1011 24.8922 19.4107 25.1673L18.8835 25.7605C18.5739 25.4853 18.0999 25.5132 17.8247 25.8228L17.5199 26.1657L17.5199 26.1657C17.5165 26.1695 17.5131 26.1731 17.5095 26.1767C17.5005 26.1857 17.4917 26.1949 17.4832 26.2043C17.4717 26.2096 17.4603 26.2152 17.449 26.2211C17.4445 26.2234 17.44 26.2256 17.4354 26.2277C17.4308 26.2298 17.4262 26.2317 17.4215 26.2335C17.4095 26.238 17.3978 26.2428 17.3862 26.2479C17.3735 26.248 17.3608 26.2484 17.3481 26.2492C17.3431 26.2495 17.338 26.2497 17.333 26.2497C17.328 26.2497 17.3229 26.2495 17.3179 26.2492C17.3052 26.2484 17.2925 26.248 17.2798 26.2479C17.2682 26.2428 17.2565 26.238 17.2445 26.2335C17.2398 26.2317 17.2352 26.2298 17.2306 26.2277C17.226 26.2256 17.2215 26.2234 17.217 26.2211C17.2057 26.2152 17.1943 26.2096 17.1828 26.2043C17.1743 26.1949 17.1655 26.1857 17.1565 26.1767C17.1529 26.1731 17.1495 26.1695 17.1461 26.1657L17.1461 26.1657L16.7651 25.7371C16.49 25.4275 16.0159 25.3996 15.7063 25.6748L14.7982 24.6531C15.1078 24.3779 15.1357 23.9038 14.8605 23.5942L14.0986 22.7371C13.8235 22.4275 13.3494 22.3996 13.0398 22.6748L12.1317 21.6531C12.4413 21.3779 12.4692 20.9038 12.194 20.5942L11.8241 20.178C11.8201 20.1729 11.8164 20.1677 11.8129 20.1624C11.7996 20.1423 11.7855 20.1231 11.7707 20.1047C11.7722 20.0812 11.7725 20.0573 11.7716 20.0333C11.7714 20.0253 11.7715 20.0173 11.772 20.0093C11.772 20.0081 11.7721 20.007 11.7722 20.0058C11.7729 19.9966 11.7741 19.9875 11.7758 19.9786C11.7802 19.955 11.7835 19.9313 11.7856 19.9079C11.803 19.8919 11.8198 19.875 11.8359 19.8571C11.842 19.8504 11.8485 19.8439 11.8554 19.8378C11.8623 19.8317 11.8695 19.826 11.8769 19.8207C11.8965 19.8068 11.9153 19.7921 11.9332 19.7767C11.9567 19.7773 11.9806 19.7768 12.0046 19.7752C12.0125 19.7747 12.0205 19.7745 12.0286 19.7747C12.0297 19.7748 12.0309 19.7748 12.032 19.7749C12.0413 19.7753 12.0504 19.7762 12.0594 19.7775C12.0832 19.7812 12.1069 19.7837 12.1304 19.785C12.1469 19.8019 12.1644 19.8181 12.1828 19.8336C12.1876 19.8377 12.1924 19.842 12.1969 19.8466L12.5135 20.2027C12.7887 20.5123 13.2628 20.5402 13.5724 20.265L14.2136 20.9864C13.9041 21.2616 13.8762 21.7356 14.1514 22.0452L14.8065 22.7822C15.0817 23.0918 15.5558 23.1197 15.8654 22.8445L16.5066 23.5659C16.1971 23.8411 16.1692 24.3151 16.4444 24.6247L16.772 24.9932C16.9143 25.1533 17.1183 25.2449 17.3325 25.2449C17.5467 25.2449 17.7507 25.1533 17.8931 24.9932L18.2473 24.5946C18.5225 24.285 18.4946 23.811 18.1851 23.5358L18.9599 22.664C19.2695 22.9392 19.7436 22.9113 20.0188 22.6018L20.7273 21.8046C21.0025 21.495 20.9746 21.021 20.6651 20.7458L21.4399 19.874C21.7495 20.1492 22.2236 20.1213 22.4988 19.8118L23.2073 19.0146C23.4825 18.705 23.4546 18.231 23.1451 17.9558L23.9199 17.084C24.2295 17.3592 24.7036 17.3313 24.9788 17.0218L25.6873 16.2246C25.9625 15.915 25.9346 15.441 25.6251 15.1658Z" stroke="#D7FF1F" stroke-width="1.5" stroke-linecap="round" stroke-linejoin="round" stroke-dasharray="1 2.5"/>
</svg>
