<svg width="176" height="24" viewBox="0 0 176 24" fill="none" xmlns="http://www.w3.org/2000/svg">
<g clip-path="url(#clip0_3972_3262)">
<path d="M23.9994 10.504V13.496C23.9994 13.624 23.8954 13.728 23.7675 13.736C18.3115 13.904 13.9035 18.312 13.7355 23.768C13.7355 23.896 13.6235 24 13.4955 24H10.5115C10.3755 24 10.2715 23.888 10.2715 23.76C10.3835 18.936 13.0475 14.48 17.2635 12.072L17.3835 12L17.2635 11.928C13.0395 9.52004 10.3835 5.06405 10.2715 0.24006C10.2715 0.104061 10.3755 6.10352e-05 10.5115 6.10352e-05H13.4955C13.6235 6.10352e-05 13.7275 0.104061 13.7355 0.23206C13.9035 5.68805 18.3115 10.096 23.7675 10.264C23.8954 10.264 23.9994 10.376 23.9994 10.504Z" fill="#D7FF1F"/>
<path d="M10.7358 15.504C10.7998 15.584 10.8078 15.696 10.7518 15.784C10.6558 15.936 10.5678 16.088 10.4798 16.24C9.97579 17.112 9.55979 18.032 9.23179 18.984C9.18379 19.112 9.00779 19.128 8.94379 19.008C8.10379 17.52 6.91179 16.264 5.4558 15.336C3.8878 14.344 2.09581 13.792 0.239812 13.736C0.111812 13.736 0.0078125 13.624 0.0078125 13.496V10.504C0.0078125 10.376 0.111812 10.272 0.239812 10.264C2.09581 10.208 3.8878 9.65599 5.4558 8.66399C6.90379 7.744 8.10379 6.48 8.94379 4.992C9.01579 4.872 9.19179 4.888 9.23179 5.016C9.55979 5.968 9.97579 6.888 10.4798 7.76C10.5678 7.912 10.6638 8.064 10.7518 8.21599C10.8078 8.30399 10.7998 8.41599 10.7358 8.49599C9.62379 9.89599 8.27979 11.048 6.72779 11.928L6.6078 12L6.72779 12.072C8.27979 12.952 9.63179 14.104 10.7358 15.504Z" fill="#D7FF1F"/>
</g>
<path d="M32.9056 5.74288V18.6H29.9999V5.74288H32.9056Z" fill="#F4F3F0"/>
<path d="M37.6007 8.8543L37.9607 11.04C38.3664 10.2514 38.915 9.64573 39.6064 9.22287C40.3035 8.80001 41.0807 8.58859 41.9378 8.58859C42.8578 8.58859 43.6435 8.7743 44.295 9.14573C44.9521 9.51144 45.4521 10.04 45.795 10.7314C46.1378 11.4171 46.3092 12.2314 46.3092 13.1743V18.6H43.4464V13.6114C43.4464 12.7429 43.2321 12.08 42.8035 11.6229C42.3807 11.1657 41.7693 10.9372 40.9693 10.9372C40.4093 10.9372 39.9207 11.06 39.5036 11.3057C39.0921 11.5457 38.7721 11.8886 38.5436 12.3343C38.3207 12.7743 38.2093 13.2886 38.2093 13.8771V18.6H35.3464V12.1286L34.7293 8.8543H37.6007Z" fill="#F4F3F0"/>
<path d="M54.6534 7.31145C53.8534 7.31145 53.2762 7.46859 52.9219 7.78287C52.5677 8.09145 52.3905 8.5943 52.3905 9.29144V9.59144H56.6076V11.7429H52.3905V18.6H49.5277V11.7429H47.4962V9.59144H49.5277V9.48001C49.5277 8.57716 49.7048 7.80288 50.0591 7.15716C50.4134 6.50574 50.9477 6.00859 51.6619 5.66574C52.3762 5.31717 53.2591 5.14288 54.3105 5.14288C54.7791 5.14288 55.2048 5.17717 55.5877 5.24574C55.9762 5.31431 56.3876 5.41717 56.8219 5.55431V7.7143C56.1591 7.44573 55.4362 7.31145 54.6534 7.31145Z" fill="#F4F3F0"/>
<path d="M63.105 18.8571C61.905 18.8571 60.8422 18.6428 59.9165 18.2143C58.9965 17.7857 58.2822 17.1857 57.7736 16.4143C57.2651 15.6371 57.0108 14.7429 57.0108 13.7314C57.0108 12.7143 57.2651 11.8171 57.7736 11.04C58.2822 10.2629 58.9965 9.66001 59.9165 9.23144C60.8422 8.80287 61.905 8.58859 63.105 8.58859C64.305 8.58859 65.365 8.80287 66.285 9.23144C67.2107 9.66001 67.9279 10.2629 68.4364 11.04C68.945 11.8171 69.1993 12.7143 69.1993 13.7314C69.1993 14.7429 68.945 15.6371 68.4364 16.4143C67.9279 17.1857 67.2107 17.7857 66.285 18.2143C65.365 18.6428 64.305 18.8571 63.105 18.8571ZM59.9079 13.7314C59.9079 14.3371 60.0365 14.8629 60.2936 15.3086C60.5508 15.7486 60.9193 16.0886 61.3993 16.3286C61.8793 16.5686 62.4479 16.6886 63.105 16.6886C63.7622 16.6886 64.3279 16.5686 64.8022 16.3286C65.2822 16.0886 65.6507 15.7486 65.9079 15.3086C66.165 14.8629 66.2936 14.3371 66.2936 13.7314C66.2936 13.1257 66.165 12.6 65.9079 12.1543C65.6507 11.7086 65.2822 11.3657 64.8022 11.1257C64.3222 10.8857 63.7565 10.7657 63.105 10.7657C62.4479 10.7657 61.8793 10.8857 61.3993 11.1257C60.9193 11.3657 60.5508 11.7086 60.2936 12.1543C60.0365 12.6 59.9079 13.1257 59.9079 13.7314Z" fill="#F4F3F0"/>
<path d="M73.2513 8.8543L73.6884 11.4857C74.0027 10.5829 74.4599 9.8743 75.0599 9.36001C75.6599 8.84573 76.4113 8.58859 77.3141 8.58859C77.7427 8.58859 78.1684 8.64001 78.5913 8.74287V11.2114C78.0256 11.08 77.4484 11.0143 76.8599 11.0143C76.277 11.0143 75.757 11.1371 75.2999 11.3829C74.8427 11.6286 74.4827 12.0057 74.2199 12.5143C73.9627 13.0171 73.8342 13.6429 73.8342 14.3914V18.6H70.9713V12.0514L70.3542 8.8543H73.2513Z" fill="#F4F3F0"/>
<path d="M82.2992 8.8543L82.6506 10.9972C83.0449 10.22 83.5649 9.62573 84.2106 9.2143C84.8621 8.79716 85.5878 8.58859 86.3878 8.58859C87.3363 8.58859 88.1335 8.80859 88.7792 9.24858C89.4306 9.68858 89.902 10.3143 90.1935 11.1257C90.582 10.3086 91.1049 9.68287 91.762 9.24858C92.4192 8.80859 93.1592 8.58859 93.982 8.58859C94.8506 8.58859 95.5963 8.7743 96.2192 9.14573C96.842 9.51144 97.3163 10.04 97.642 10.7314C97.9677 11.4171 98.1306 12.2314 98.1306 13.1743V18.6H95.2677V13.6114C95.2677 12.7429 95.0763 12.08 94.6935 11.6229C94.3163 11.1657 93.7649 10.9372 93.0392 10.9372C92.5249 10.9372 92.0792 11.06 91.702 11.3057C91.3249 11.5457 91.0335 11.8886 90.8278 12.3343C90.622 12.7743 90.5192 13.2886 90.5192 13.8771V18.6H87.6563V13.6114C87.6563 12.7429 87.4649 12.08 87.0821 11.6229C86.7049 11.1657 86.1535 10.9372 85.4278 10.9372C84.9135 10.9372 84.4678 11.06 84.0906 11.3057C83.7135 11.5457 83.4221 11.8886 83.2164 12.3343C83.0106 12.7743 82.9078 13.2886 82.9078 13.8771V18.6H80.0449V12.1286L79.4278 8.8543H82.2992Z" fill="#F4F3F0"/>
<path d="M108.839 16.4057C108.353 17.1828 107.739 17.7857 106.996 18.2143C106.259 18.6428 105.439 18.8571 104.536 18.8571C103.593 18.8571 102.753 18.6428 102.016 18.2143C101.279 17.7857 100.704 17.1828 100.293 16.4057C99.8873 15.6286 99.6844 14.7371 99.6844 13.7314C99.6844 12.72 99.8873 11.8257 100.293 11.0486C100.704 10.2657 101.276 9.66001 102.007 9.23144C102.744 8.80287 103.587 8.58859 104.536 8.58859C105.439 8.58859 106.259 8.80287 106.996 9.23144C107.739 9.6543 108.356 10.2543 108.847 11.0314L109.096 8.8543H112.062L111.496 13.7229L112.062 18.6H109.096L108.839 16.4057ZM102.59 13.7314C102.59 14.2914 102.707 14.7914 102.942 15.2314C103.176 15.6714 103.499 16.0143 103.91 16.26C104.327 16.5057 104.799 16.6286 105.324 16.6286C105.856 16.6286 106.362 16.5057 106.842 16.26C107.322 16.0143 107.742 15.6743 108.102 15.24C108.467 14.8 108.753 14.2971 108.959 13.7314C108.753 13.1657 108.467 12.6629 108.102 12.2229C107.742 11.7829 107.322 11.44 106.842 11.1943C106.362 10.9429 105.856 10.8172 105.324 10.8172C104.799 10.8172 104.327 10.9429 103.91 11.1943C103.499 11.44 103.176 11.7857 102.942 12.2314C102.707 12.6714 102.59 13.1714 102.59 13.7314Z" fill="#F4F3F0"/>
<path d="M116.384 8.8543L116.744 11.04C117.15 10.2514 117.698 9.64573 118.39 9.22287C119.087 8.80001 119.864 8.58859 120.721 8.58859C121.641 8.58859 122.427 8.7743 123.078 9.14573C123.735 9.51144 124.235 10.04 124.578 10.7314C124.921 11.4171 125.092 12.2314 125.092 13.1743V18.6H122.23V13.6114C122.23 12.7429 122.015 12.08 121.587 11.6229C121.164 11.1657 120.552 10.9372 119.752 10.9372C119.192 10.9372 118.704 11.06 118.287 11.3057C117.875 11.5457 117.555 11.8886 117.327 12.3343C117.104 12.7743 116.992 13.2886 116.992 13.8771V18.6H114.13V12.1286L113.513 8.8543H116.384Z" fill="#F4F3F0"/>
<path d="M138.295 14.6229C138.192 15.4571 137.875 16.1943 137.343 16.8343C136.817 17.4743 136.132 17.9714 135.286 18.3257C134.44 18.68 133.506 18.8571 132.483 18.8571C131.335 18.8571 130.315 18.6428 129.423 18.2143C128.532 17.78 127.837 17.1771 127.34 16.4057C126.849 15.6286 126.603 14.7371 126.603 13.7314C126.603 12.7257 126.849 11.8343 127.34 11.0572C127.837 10.28 128.532 9.6743 129.423 9.24001C130.315 8.80573 131.335 8.58859 132.483 8.58859C133.506 8.58859 134.44 8.76573 135.286 9.12001C136.132 9.4743 136.817 9.9743 137.343 10.62C137.875 11.2657 138.192 12.0057 138.295 12.84H135.432C135.289 12.1886 134.952 11.68 134.42 11.3143C133.895 10.9486 133.249 10.7657 132.483 10.7657C131.877 10.7657 131.349 10.8829 130.897 11.1172C130.452 11.3514 130.106 11.6914 129.86 12.1371C129.62 12.5829 129.5 13.1143 129.5 13.7314C129.5 14.3429 129.62 14.8714 129.86 15.3171C130.106 15.7628 130.452 16.1028 130.897 16.3371C131.349 16.5714 131.877 16.6886 132.483 16.6886C132.986 16.6886 133.443 16.6057 133.855 16.44C134.272 16.2686 134.615 16.0257 134.883 15.7114C135.157 15.3971 135.34 15.0343 135.432 14.6229H138.295Z" fill="#F4F3F0"/>
<path d="M145.36 18.8571C144.206 18.8571 143.172 18.6428 142.257 18.2143C141.343 17.78 140.629 17.1743 140.115 16.3971C139.6 15.6143 139.343 14.7143 139.343 13.6971C139.343 12.6971 139.589 11.8114 140.08 11.04C140.572 10.2629 141.255 9.66001 142.129 9.23144C143.003 8.80287 143.992 8.58859 145.095 8.58859C146.203 8.58859 147.169 8.83716 147.992 9.3343C148.814 9.82573 149.446 10.5286 149.886 11.4429C150.332 12.3514 150.554 13.4114 150.554 14.6229H142.412C142.629 15.2857 143.052 15.7971 143.68 16.1571C144.309 16.5171 145.106 16.6971 146.072 16.6971C146.809 16.6971 147.549 16.5914 148.292 16.38C149.034 16.1686 149.7 15.8714 150.289 15.4886V17.4086C149.643 17.8657 148.892 18.2228 148.035 18.48C147.183 18.7314 146.292 18.8571 145.36 18.8571ZM147.769 12.72C147.603 12.0743 147.289 11.5771 146.826 11.2286C146.369 10.8743 145.797 10.6972 145.112 10.6972C144.386 10.6972 143.777 10.88 143.286 11.2457C142.8 11.6057 142.48 12.0971 142.326 12.72H147.769Z" fill="#F4F3F0"/>
<path d="M170.747 18.6H167.644L166.427 15.8914H159.296L158.079 18.6H154.976L160.984 5.74288H164.739L170.747 18.6ZM165.364 13.5257L162.861 7.98002L160.367 13.5257H165.364Z" fill="#F4F3F0"/>
<path d="M175.037 5.74288V18.6H172.131V5.74288H175.037Z" fill="#F4F3F0"/>
<defs>
<clipPath id="clip0_3972_3262">
<rect width="23.9999" height="23.9999" fill="white"/>
</clipPath>
</defs>
</svg>
