<svg width="20" height="20" viewBox="0 0 20 20" fill="none" xmlns="http://www.w3.org/2000/svg">
<path d="M8.35033 10.9232C8.367 10.785 8.38366 10.6468 8.38366 10.5C8.38366 10.3532 8.367 10.215 8.35033 10.0768L9.25029 9.36864C9.33362 9.30818 9.35029 9.18727 9.30029 9.09227L8.442 7.59818C8.392 7.50318 8.27534 7.46864 8.18367 7.50318L7.11705 7.935C6.89206 7.76227 6.65041 7.62409 6.39209 7.51182L6.22543 6.36318C6.22543 6.25955 6.13376 6.18182 6.02543 6.18182H4.31718C4.20885 6.18182 4.11718 6.25955 4.10052 6.36318L3.93386 7.50318C3.67554 7.60682 3.43388 7.76227 3.20889 7.92636L2.14227 7.49455C2.04228 7.45136 1.93395 7.49455 1.88395 7.58955L1.02565 9.08364C0.975655 9.18727 1.00065 9.29955 1.08398 9.36864L1.98394 10.0768C1.96728 10.215 1.95895 10.3618 1.95895 10.5C1.95895 10.6468 1.97561 10.785 1.99228 10.9232L1.08398 11.64C1.00065 11.7005 0.983988 11.8214 1.03399 11.9164L1.89228 13.4105C1.94228 13.5055 2.05894 13.54 2.1506 13.5055L3.21722 13.0736C3.44221 13.2464 3.68387 13.3845 3.94219 13.4968L4.10885 14.6368C4.11719 14.7405 4.20885 14.8182 4.31718 14.8182H6.03377C6.1421 14.8182 6.23376 14.7405 6.24209 14.6368L6.40875 13.4968C6.66707 13.3932 6.90873 13.2377 7.13372 13.0736L8.20034 13.5055C8.30034 13.5486 8.40866 13.5055 8.45866 13.4105L9.31696 11.9164C9.36695 11.8214 9.35029 11.7091 9.26696 11.64L8.35033 10.9232ZM5.16714 12.0114C4.34218 12.0114 3.6672 11.3377 3.6672 10.5C3.6672 9.66227 4.34218 8.98864 5.16714 8.98864C5.9921 8.98864 6.66707 9.66227 6.66707 10.5C6.66707 11.3377 6.00044 12.0114 5.16714 12.0114ZM14.3334 1.00864L6.00044 1C5.08381 1 4.33384 1.77727 4.33384 2.72727V5.31818H6.00044V4.45455H14.3334V16.5455H6.00044V15.6818H4.33384V18.2727C4.33384 19.2227 5.08381 20 6.00044 20H14.3334C15.25 20 16 19.2227 16 18.2727V2.72727C16 1.77727 15.25 1.00864 14.3334 1.00864Z" fill="#686B6E"/>
</svg>
